{"title":"the.UNKNOWN.1927.HQTV.720p.x264.AC3.[FrOnkY]","uid":10574512,"size":1733113344,"categoryP":"video","categoryS":"hd___movies","magnet":"?xt=urn:btih:0e49c8b09fa1370687003c367207d5f264a08329&amp;dn=the.UNKNOWN.1927.HQTV.720p.x264.AC3.%5BFrOnkY%5D&amp;tr=udp%3A%2F%2Ftracker.openbittorrent.com%3A80&amp;tr=udp%3A%2F%2Fopen.demonii.com%3A1337&amp;tr=udp%3A%2F%2Ftracker.coppersurfer.tk%3A6969&amp;tr=udp%3A%2F%2Fexodus.desync.com%3A6969","seeders":2,"leechers":1,"uploader":"HDmEntEs","files":-1,"time":1405625946,"description":"Master... Piece(s)\n\n\nthe.Unknown.(Garras.Humanas).1927.HQTV.720p.x264.AC3.[FrOnkY].mkv\n\nFormat                                   : Matroska\nFormat version                           : Version 4 / Version 2\nFile size                                : 1.61 GiB\nDuration                                 : 49mn 25s\nOverall bit rate                         : 4 676 Kbps\nWriting application                      : mkvmerge v6.6.0 ('The Edge Of The In Between') built on Dec  1 2013 17:55:00\nWriting library                          : libebml v1.3.0 + libmatroska v1.4.1\nAttachment                               : Yes / Yes / Yes / Yes / Yes / Yes / Yes / Yes\n\nVideo\nID                                       : 1\nFormat                                   : AVC\nFormat/Info                              : Advanced Video Codec\nFormat profile                           : &lt;a class=&quot;__cf_email__&quot; href=&quot;/cdn-cgi/l/email-protection&quot; data-cfemail=&quot;89c1e0eee1c9c5bda7b8&quot;&gt;[email&amp;#160;protected]&lt;/a&gt;&lt;script cf-hash='f9e31' type=&quot;text/javascript&quot;&gt;\n/* &lt;![CDATA[ */!function(){try{var t=&quot;currentScript&quot;in document?document.currentScript:function(){for(var t=document.getElementsByTagName(&quot;script&quot;),e=t.length;e--;)if(t[e].getAttribute(&quot;cf-hash&quot;))return t[e]}();if(t&amp;&amp;t.previousSibling){var e,r,n,i,c=t.previousSibling,a=c.getAttribute(&quot;data-cfemail&quot;);if(a){for(e=&quot;&quot;,r=parseInt(a.substr(0,2),16),n=2;a.length-n;n+=2)i=parseInt(a.substr(n,2),16)^r,e+=String.fromCharCode(i);e=document.createTextNode(e),c.parentNode.replaceChild(e,c)}}}catch(u){}}();/* ]]&gt; */&lt;/script&gt;\nFormat settings, CABAC                   : Yes\nFormat settings, ReFrames                : 12 frames\nCodec ID                                 : V_MPEG4/ISO/AVC\nDuration                                 : 49mn 25s\nBit rate                                 : 4 391 Kbps\nWidth                                    : 956 pixels\nHeight                                   : 720 pixels\nDisplay aspect ratio                     : 4:3\nFrame rate mode                          : Constant\nFrame rate                               : 23.976 fps\nColor space                              : YUV\nChroma subsampling                       : 4:2:0\nBit depth                                : 8 bits\nScan type                                : Progressive\nBits/(Pixel*Frame)                       : 0.266\nStream size                              : 1.52 GiB (94%)\nLanguage                                 : English\nDefault                                  : Yes\nForced                                   : No\n\nAudio\nID                                       : 2\nFormat                                   : AC-3\nFormat/Info                              : Audio Coding 3\nMode extension                           : CM (complete main)\nFormat settings, Endianness              : Big\nCodec ID                                 : A_AC3\nDuration                                 : 49mn 25s\nBit rate mode                            : Constant\nBit rate                                 : 192 Kbps\nChannel(s)                               : 1 channel\nChannel positions                        : Front: C\nSampling rate                            : 48.0 KHz\nBit depth                                : 16 bits\nStream size                              : 67.9 MiB (4%)\nLanguage                                 : English\nDefault                                  : Yes\nForced                                   : No\n\nText #1\nID                                       : 3\nFormat                                   : UTF-8\nCodec ID                                 : S_TEXT/UTF8\nCodec ID/Info                            : UTF-8 Plain Text\nLanguage                                 : Spanish\nDefault                                  : Yes\nForced                                   : No\n\nText #2\nID                                       : 4\nFormat                                   : UTF-8\nCodec ID                                 : S_TEXT/UTF8\nCodec ID/Info                            : UTF-8 Plain Text\nLanguage                                 : Spanish\nDefault                                  : No\nForced                                   : No\n\nText #3\nID                                       : 5\nFormat                                   : UTF-8\nCodec ID                                 : S_TEXT/UTF8\nCodec ID/Info                            : UTF-8 Plain Text\nLanguage                                 : French\nDefault                                  : No\nForced                                   : No\n\nMenu\n00:00:00.000                             : en:Chapter 01\n00:00:57.725                             : en:Chapter 02\n00:07:15.728                             : en:Chapter 03\n00:13:59.173                             : en:Chapter 04\n00:15:20.796                             : en:Chapter 05\n00:21:57.359                             : en:Chapter 06\n00:27:55.801                             : en:Chapter 07\n00:32:57.144                             : en:Chapter 08\n00:42:20.666                             : en:Chapter 09\n00:46:41.385                             : en:Chapter 10\n\n\nDVD - HQTV\n &lt;a href=&quot;\nhttps://box.jisko.net/i/13a2de62.png&quot; rel=&quot;nofollow&quot; target=&quot;_NEW&quot;&gt;\nhttps://box.jisko.net/i/13a2de62.png&lt;/a&gt; &lt;a href=&quot;\nhttps://box.jisko.net/i/3e42ba98.png&quot; rel=&quot;nofollow&quot; target=&quot;_NEW&quot;&gt;\nhttps://box.jisko.net/i/3e42ba98.png&lt;/a&gt;\n &lt;a href=&quot;\nhttps://box.jisko.net/i/6c9809de.png&quot; rel=&quot;nofollow&quot; target=&quot;_NEW&quot;&gt;\nhttps://box.jisko.net/i/6c9809de.png&lt;/a&gt; &lt;a href=&quot;\nhttps://box.jisko.net/i/2710e303.png&quot; rel=&quot;nofollow&quot; target=&quot;_NEW&quot;&gt;\nhttps://box.jisko.net/i/2710e303.png&lt;/a&gt;\n &lt;a href=&quot;\nhttps://box.jisko.net/i/03fd52e2.png&quot; rel=&quot;nofollow&quot; target=&quot;_NEW&quot;&gt;\nhttps://box.jisko.net/i/03fd52e2.png&lt;/a&gt; &lt;a href=&quot;\nhttps://box.jisko.net/i/f9406bc4.png&quot; rel=&quot;nofollow&quot; target=&quot;_NEW&quot;&gt;\nhttps://box.jisko.net/i/f9406bc4.png&lt;/a&gt;\n\n\nSCREENS\n &lt;a href=&quot;\nhttps://box.jisko.net/i/8df08e3b.png&quot; rel=&quot;nofollow&quot; target=&quot;_NEW&quot;&gt;\nhttps://box.jisko.net/i/8df08e3b.png&lt;/a&gt;\n &lt;a href=&quot;\nhttps://box.jisko.net/i/c46fa199.png&quot; rel=&quot;nofollow&quot; target=&quot;_NEW&quot;&gt;\nhttps://box.jisko.net/i/c46fa199.png&lt;/a&gt;\n &lt;a href=&quot;\nhttps://box.jisko.net/i/32d76087.png&quot; rel=&quot;nofollow&quot; target=&quot;_NEW&quot;&gt;\nhttps://box.jisko.net/i/32d76087.png&lt;/a&gt;","torrent":{"xt":"urn:btih:0e49c8b09fa1370687003c367207d5f264a08329","amp;dn":"the.UNKNOWN.1927.HQTV.720p.x264.AC3.%5BFrOnkY%5D","amp;tr":["udp%3A%2F%2Ftracker.openbittorrent.com%3A80","udp%3A%2F%2Fopen.demonii.com%3A1337","udp%3A%2F%2Ftracker.coppersurfer.tk%3A6969","udp%3A%2F%2Fexodus.desync.com%3A6969"],"infoHash":"0e49c8b09fa1370687003c367207d5f264a08329","infoHashBuffer":{"type":"Buffer","data":[14,73,200,176,159,161,55,6,135,0,60,54,114,7,213,242,100,160,131,41]},"announce":[],"urlList":[]}}